PathFileType	4	(X/Y/Z)	/Users/itak/Documents/Research/Walk-IL/dataset/trc/00038_00004.trc
DataRate	CameraRate	NumFrames	NumMarkers	Units	OrigDataRate	OrigDataStartFrame	OrigNumFrames
100.000000	100.000000	4	53	mm	100.000000	458	524
Frame#	Time	RPSI			LPSI			L3			STRN			T10			C7			CLAV			RBAK			LBAK			LSHO			LUPA			LAEL			LAOL			LWTS			LWPS			LFRA			LIFD			LHPS			LHTS			RSHO			RUPA			RAEL			RAOL			RWTS			RWPS			RFRA			RIFD			RHTS			RHPS			RBHD			LFHD			RFHD			LBHD			LHIP			RHIP			RASI			LASI			LKNE			LTHI			LANK			LTIP			LTOE			LMT1			LMT5			LHEE			RKNE			RTHI			RANK			RTIP			RTOE			RMT1			RMT5			RHEE			
		X1	Y1	Z1	X2	Y2	Z2	X3	Y3	Z3	X4	Y4	Z4	X5	Y5	Z5	X6	Y6	Z6	X7	Y7	Z7	X8	Y8	Z8	X9	Y9	Z9	X10	Y10	Z10	X11	Y11	Z11	X12	Y12	Z12	X13	Y13	Z13	X14	Y14	Z14	X15	Y15	Z15	X16	Y16	Z16	X17	Y17	Z17	X18	Y18	Z18	X19	Y19	Z19	X20	Y20	Z20	X21	Y21	Z21	X22	Y22	Z22	X23	Y23	Z23	X24	Y24	Z24	X25	Y25	Z25	X26	Y26	Z26	X27	Y27	Z27	X28	Y28	Z28	X29	Y29	Z29	X30	Y30	Z30	X31	Y31	Z31	X32	Y32	Z32	X33	Y33	Z33	X34	Y34	Z34	X35	Y35	Z35	X36	Y36	Z36	X37	Y37	Z37	X38	Y38	Z38	X39	Y39	Z39	X40	Y40	Z40	X41	Y41	Z41	X42	Y42	Z42	X43	Y43	Z43	X44	Y44	Z44	X45	Y45	Z45	X46	Y46	Z46	X47	Y47	Z47	X48	Y48	Z48	X49	Y49	Z49	X50	Y50	Z50	X51	Y51	Z51	X52	Y52	Z52	X53	Y53	Z53	

459	4.58	4.493237495422363	1071.903198242188	843.9182739257812	167.2426452636719	1067.417236328125	818.7081298828125	92.83457183837891	1122.661254882812	821.811279296875	110.0807876586914	1328.500122070312	1032.501586914062	86.52113342285156	1264.588500976562	789.34375	95.662109375	1535.02197265625	820.6566772460938	106.7362442016602	1452.728881835938	984.8058471679688	13.74063587188721	1393.324096679688	785.0372314453125	191.3665618896484	1494.634643554688	795.3323974609375	274.4942016601562	1508.893798828125	889.0388793945312	349.7010498046875	1382.511474609375	856.7294921875	379.3890991210938	1165.572998046875	864.5936889648438	283.0842590332031	1148.651611328125	822.392822265625	341.504150390625	918.7711791992188	974.6130981445312	374.4150695800781	899.9447021484375	894.0986938476562	389.6607055664062	1050.973388671875	882.8325805664062	324.7013854980469	736.8817138671875	1013.613220214844	378.8505554199219	812.4697875976562	933.149169921875	357.5294799804688	826.6742553710938	999.6569213867188	-72.84869384765625	1520.953125	912.97265625	-142.2665252685547	1447.90869140625	910.1199951171875	-162.9114227294922	1176.460693359375	901.4151611328125	-65.85691070556641	1150.994262695312	895.21728515625	-114.7517700195312	930.083251953125	1049.258056640625	-184.8969879150391	908.9098510742188	992.38134765625	-175.0201416015625	1101.660278320312	921.7205810546875	-92.26144409179688	749.5150756835938	1076.81298828125	-124.0196304321289	823.692138671875	1093.47509765625	-179.3765106201172	812.818115234375	1043.21728515625	158.8726043701172	1722.489868164062	856.7831420898438	38.58060836791992	1745.942993164062	1037.44091796875	136.3954010009766	1751.352905273438	1034.747680664062	15.11228656768799	1712.73291015625	867.244140625	291.6780395507812	967.4821166992188	901.3829956054688	-75.61608123779297	957.8528442382812	973.8453979492188	11.23514938354492	997.3522338867188	1063.677124023438	242.1344299316406	1018.25048828125	1024.777709960938	260.8684692382812	526.76513671875	992.02734375	291.7680053710938	660.4202880859375	950.3233642578125	266.6165161132812	41.21842193603516	896.7640380859375	278.0379028320312	291.0507202148438	913.542236328125	205.298095703125	38.25264358520508	1116.471069335938	189.0349578857422	48.05192947387695	1057.10693359375	288.8249816894531	40.35343933105469	1020.012084960938	213.9224395751953	47.84473419189453	827.9622192382812	-7.925353050231934	523.6400146484375	978.1005249023438	-61.12957763671875	790.2314453125	996.7635498046875	27.86379432678223	40.54055404663086	889.5040893554688	-2.912284851074219	401.1438598632812	957.3978881835938	107.3161010742188	49.08901977539062	1110.043090820312	127.0341796875	52.47678756713867	1042.844360351562	29.9875316619873	41.43471908569336	1039.7880859375	62.90567779541016	42.65746688842773	828.1886596679688	
460	4.59	5.546511173248291	1071.794311523438	845.4353637695312	168.3273773193359	1067.34375	820.36083984375	93.97530364990234	1122.65771484375	823.3740234375	110.9876861572266	1328.550415039062	1033.7568359375	88.16473388671875	1264.464599609375	790.4805297851562	97.66309356689453	1534.928955078125	821.690673828125	107.8736038208008	1452.73681640625	985.9783935546875	15.73183155059814	1393.316162109375	785.8231201171875	193.4690246582031	1494.3828125	796.8326416015625	276.2112121582031	1508.650268554688	890.8862915039062	351.4541931152344	1382.16064453125	859.1451416015625	380.6575317382812	1165.110473632812	867.59765625	284.5472106933594	1148.357666015625	824.8701782226562	341.6802673339844	918.5706787109375	977.8156127929688	375.0161437988281	899.5773315429688	897.505126953125	390.6019897460938	1050.525634765625	886.0916748046875	324.2175903320312	736.7554321289062	1016.964172363281	378.9964294433594	812.1152954101562	936.7196044921875	357.3418579101562	826.483154296875	1003.063110351562	-71.26616668701172	1521.1240234375	913.321044921875	-140.6959228515625	1448.116943359375	910.08349609375	-161.1560211181641	1176.7724609375	900.5797729492188	-64.01548767089844	1151.330200195312	895.0577392578125	-114.8853988647461	928.8623657226562	1046.445556640625	-184.5713958740234	908.5800170898438	988.73583984375	-173.5324554443359	1101.99853515625	920.2403564453125	-93.33036041259766	747.8461303710938	1072.02099609375	-124.9128952026367	821.9281616210938	1089.3232421875	-179.8613433837891	811.9191284179688	1038.462646484375	160.8793029785156	1722.29833984375	857.7997436523438	40.02777099609375	1746.127807617188	1038.068115234375	137.904541015625	1751.495239257812	1035.65283203125	17.07051658630371	1712.697998046875	867.8648071289062	292.6658935546875	967.5341796875	903.1188354492188	-74.58629608154297	957.6796875	975.3325805664062	12.10378932952881	997.43017578125	1065.226440429688	243.0400543212891	1018.187805175781	1026.58984375	261.1889038085938	526.3450927734375	990.9132080078125	292.0817565917969	660.2381591796875	950.09326171875	266.6004638671875	41.15493011474609	896.7163696289062	278.1783752441406	290.9294738769531	912.7214965820312	205.32421875	38.26485061645508	1116.502685546875	189.0349578857422	48.05107116699219	1057.10205078125	288.8231811523438	40.30235290527344	1019.980895996094	213.8780059814453	47.64630889892578	827.9237670898438	-6.702994346618652	523.422119140625	979.439697265625	-60.0802116394043	790.0362548828125	998.2149047851562	28.35929298400879	40.86868667602539	889.6389770507812	-1.6954665184021	401.0345153808594	958.5216674804688	107.6386337280273	48.21446228027344	1110.443969726562	127.3499450683594	51.96466445922852	1043.161865234375	30.32563972473145	41.47353363037109	1039.914184570312	63.31204986572266	42.87631225585938	828.2484741210938	
461	4.600000000000001	6.544547080993652	1071.66796875	846.9332275390625	169.3482513427734	1067.242919921875	821.9146728515625	95.05022430419922	1122.662109375	824.8809814453125	111.8888931274414	1328.594604492188	1034.979248046875	89.74057006835938	1264.340087890625	791.5729370117188	99.62256622314453	1534.833984375	822.7093505859375	109.0380325317383	1452.735717773438	987.1158447265625	17.66007423400879	1393.309936523438	786.6109619140625	195.5164642333984	1494.132202148438	798.2861938476562	277.9005126953125	1508.408325195312	892.6585083007812	353.1864318847656	1381.818359375	861.457275390625	381.9127197265625	1164.662109375	870.4983520507812	286.011474609375	1148.063720703125	827.2669677734375	341.8914184570312	918.4077758789062	980.9583740234375	375.6274108886719	899.2327270507812	900.8587646484375	391.5492858886719	1050.096923828125	889.262939453125	323.8170776367188	736.6739501953125	1020.300720214844	379.1775817871094	811.7907104492188	940.2501220703125	357.2023315429688	826.3363037109375	1006.427856445312	-69.67884826660156	1521.31005859375	913.715087890625	-139.1478424072266	1448.354858398438	910.1065673828125	-159.4549255371094	1177.110229492188	899.7266845703125	-62.23523712158203	1151.698852539062	894.8311157226562	-114.9684829711914	927.698486328125	1043.627197265625	-184.1984100341797	908.307373046875	985.1233520507812	-172.0759582519531	1102.352661132812	918.7528076171875	-94.24526214599609	746.333740234375	1067.23583984375	-125.7157592773438	820.2888793945312	1085.176025390625	-180.2288360595703	811.0961303710938	1033.766967773438	162.8893585205078	1722.100341796875	858.8120727539062	41.50772857666016	1746.286743164062	1038.718383789062	139.4434661865234	1751.587036132812	1036.564331054688	19.02763557434082	1712.691284179688	868.5043334960938	293.6321716308594	967.5615844726562	904.72021484375	-73.53758239746094	957.5111083984375	976.8400268554688	13.02408695220947	997.5328979492188	1066.782104492188	243.9700469970703	1018.120178222656	1028.279907226562	261.6414794921875	525.8871459960938	989.8445434570312	292.4903259277344	660.0682373046875	949.893310546875	266.679931640625	41.07460021972656	896.6696166992188	278.4221801757812	290.8128967285156	911.9042358398438	205.3753051757812	38.28222274780273	1116.516723632812	189.08251953125	48.07682418823242	1057.085815429688	288.8728332519531	40.21771621704102	1019.968078613281	213.9012145996094	47.45573043823242	827.8933715820312	-5.450876235961914	523.2222900390625	980.832763671875	-58.93772888183594	789.8557739257812	999.7526245117188	28.84365463256836	41.1939582824707	889.7767333984375	-0.4722577929496765	400.9302062988281	959.6903076171875	107.9855804443359	47.38098907470703	1110.812622070312	127.6710433959961	51.46929931640625	1043.458740234375	30.69675827026367	41.5175666809082	1040.051147460938	63.71146392822266	43.09384918212891	828.3111572265625	
462	4.61	7.500377655029297	1071.525634765625	848.4039916992188	170.3234710693359	1067.107421875	823.3811645507812	96.07595062255859	1122.659912109375	826.3316650390625	112.7997817993164	1328.6220703125	1036.167602539062	91.25627899169922	1264.2109375	792.619384765625	101.5419921875	1534.729248046875	823.7084350585938	110.2301559448242	1452.721801757812	988.21533203125	19.52558517456055	1393.296875	787.3998413085938	197.5042419433594	1493.874633789062	799.6864013671875	279.5567321777344	1508.161010742188	894.3483276367188	354.8949279785156	1381.470581054688	863.6546020507812	383.1508483886719	1164.21630859375	873.2859497070312	287.4742126464844	1147.7490234375	829.5767211914062	342.1397399902344	918.2733154296875	984.0389404296875	376.2481079101562	898.8960571289062	904.1575927734375	392.5007629394531	1049.677124023438	892.3364868164062	323.5089416503906	736.6304321289062	1023.6298828125	379.4017333984375	811.4866943359375	943.740234375	357.1212158203125	826.2232666015625	1009.753601074219	-68.09126281738281	1521.49609375	914.1539306640625	-137.6218872070312	1448.606079101562	910.1947021484375	-157.8229827880859	1177.460083007812	898.8671875	-60.52899551391602	1152.0830078125	894.5331420898438	-114.9915161132812	926.58984375	1040.814331054688	-183.7847595214844	908.0797729492188	981.5701904296875	-170.6651611328125	1102.70947265625	917.2730712890625	-94.98982238769531	744.9686279296875	1062.482788085938	-126.4032516479492	818.7822265625	1081.053344726562	-180.4723052978516	810.3378295898438	1029.163330078125	164.8927764892578	1721.89404296875	859.8194580078125	43.02639007568359	1746.415649414062	1039.388793945312	141.01025390625	1751.62109375	1037.481201171875	20.97956657409668	1712.703857421875	869.1594848632812	294.5543518066406	967.5340576171875	906.224853515625	-72.46707153320312	957.365478515625	978.3692016601562	13.97825241088867	997.6616821289062	1068.345703125	244.9210968017578	1018.036376953125	1029.857177734375	262.2161865234375	525.3624267578125	988.8447265625	292.9899291992188	659.8895874023438	949.7362670898438	266.8260498046875	40.97689056396484	896.621826171875	278.7379760742188	290.6878051757812	911.1004028320312	205.4403686523438	38.29925537109375	1116.51513671875	189.1595306396484	48.1168327331543	1057.06298828125	288.960693359375	40.11159133911133	1019.968994140625	213.9697113037109	47.26718521118164	827.8690795898438	-4.203761577606201	523.0408935546875	982.2459106445312	-57.70086669921875	789.6971435546875	1001.371154785156	29.28306198120117	41.50680541992188	889.9014892578125	0.7113571763038635	400.8319396972656	960.865234375	108.3411102294922	46.63369369506836	1111.133544921875	127.987060546875	51.01416397094727	1043.724365234375	31.07736206054688	41.56379699707031	1040.18994140625	64.08077239990234	43.30055618286133	828.3729858398438	
